<?xml version="1.0" encoding="utf-8"?>
<svg version="1.1" id="Слой_1" xmlns="http://www.w3.org/2000/svg" xmlns:xlink="http://www.w3.org/1999/xlink" x="0px"
     y="0px"
     viewBox="0 0 509 96" style="enable-background:new 0 0 509 96;" xml:space="preserve">
    <g fill="#FFFFFF">
	<path d="M163.4,0c-3.6,0.1-7.2,0.7-10.7,1.7c-2.9,0.9-5.9,1.4-8.9,1.4h-14.4v92.4h19.9V70.1c5.8,3,12.2,4.5,18.7,4.2
		c6.5-0.3,12.8-2.3,18.3-5.8c5.5-3.5,10-8.4,12.9-14.2c3-5.8,4.4-12.3,4-18.8C202.3,14.8,184.2-0.9,163.4,0z M166.5,54.6
		c-3.4,0-6.7-1-9.5-2.9c-2.8-1.9-5-4.6-6.3-7.7c-1.3-3.1-1.6-6.6-1-9.9s2.3-6.4,4.7-8.7c2.4-2.4,5.4-4,8.8-4.7
		c3.3-0.7,6.8-0.3,9.9,1s5.8,3.5,7.7,6.3s2.9,6.1,2.9,9.5c0,2.2-0.4,4.5-1.3,6.6c-0.9,2.1-2.1,4-3.7,5.6c-1.6,1.6-3.5,2.8-5.6,3.7
		C171,54.1,168.8,54.6,166.5,54.6z"/>
        <path d="M89.2,0.6c-7.3,0-14.4,2.2-20.5,6.2c-6.1,4.1-10.8,9.8-13.6,16.5c-2.8,6.7-3.5,14.2-2.1,21.3
		c1.4,7.2,4.9,13.7,10.1,18.9S74.8,72.2,82,73.6s14.6,0.7,21.3-2.1c6.7-2.8,12.5-7.5,16.5-13.6c4.1-6.1,6.2-13.2,6.2-20.5
		c0-4.8-1-9.6-2.8-14.1s-4.6-8.5-8-12c-3.4-3.4-7.5-6.1-12-8C98.8,1.6,94,0.6,89.2,0.6z M89.2,54.6c-3.4,0-6.7-1-9.5-2.9
		c-2.8-1.9-5-4.6-6.3-7.7c-1.3-3.1-1.6-6.6-1-9.9c0.7-3.3,2.3-6.4,4.7-8.8c2.4-2.4,5.4-4,8.8-4.7c3.3-0.7,6.8-0.3,9.9,1
		c3.1,1.3,5.8,3.5,7.7,6.3s2.9,6.1,2.9,9.5c0,2.2-0.4,4.5-1.3,6.5c-0.9,2.1-2.1,4-3.7,5.5c-1.6,1.6-3.5,2.8-5.5,3.7
		C93.7,54.1,91.4,54.6,89.2,54.6z"/>
        <path d="M51.7,3.1H19.9C14.6,3.1,9.6,5.2,5.8,9C2.1,12.7,0,17.8,0,23h0v48.8h19.9V23h31.8V3.1z"/>
</g>
    <g fill="#E4A642">
	<path d="M442,3.2h4.5c0,0,0,0,0,0L465,24.6c1.5,1.8,4.3,1.8,5.8,0l18.5-21.4c0,0,0,0,0,0c0,0,0,0,0,0h4.5
		c8.5,0,15.3,6.9,15.3,15.3v53.6h-19.8V28.3l-8.8,10.2c-6.6,7.7-18.5,7.7-25.1,0l-8.8-10.2v43.8h-19.8V18.5
		C426.7,10,433.6,3.2,442,3.2z"/>
        <path d="M387.2,0.6c-7.3,0-14.4,2.2-20.5,6.2c-6.1,4.1-10.8,9.8-13.6,16.6c-2.8,6.7-3.5,14.2-2.1,21.3
		c1.4,7.2,4.9,13.7,10.1,18.9c5.2,5.2,11.7,8.7,18.9,10.1c7.2,1.4,14.6,0.7,21.3-2.1c6.7-2.8,12.5-7.5,16.5-13.6
		c4.1-6.1,6.2-13.2,6.2-20.5c0-4.8-1-9.6-2.8-14.1c-1.9-4.5-4.6-8.5-8-12c-3.4-3.4-7.5-6.1-12-8C396.8,1.6,392,0.6,387.2,0.6z
		 M387.2,54.6c-3.4,0-6.7-1-9.5-2.9c-2.8-1.9-5-4.5-6.3-7.7c-1.3-3.1-1.6-6.6-1-9.9c0.7-3.3,2.3-6.4,4.7-8.8c2.4-2.4,5.4-4,8.8-4.7
		c3.3-0.7,6.8-0.3,9.9,1c3.1,1.3,5.8,3.5,7.7,6.3c1.9,2.8,2.9,6.1,2.9,9.5c0,4.5-1.8,8.9-5,12.1C396.1,52.8,391.7,54.6,387.2,54.6z"
        />
        <path d="M307.7,0c-3.6,0.1-7.2,0.7-10.7,1.7c-2.9,0.9-5.8,1.4-8.9,1.4h-14.4v92.4h19.9V70.1c5.8,3,12.2,4.5,18.8,4.2
		c6.5-0.3,12.8-2.3,18.3-5.8c5.5-3.5,10-8.4,12.9-14.2s4.4-12.3,4-18.8C346.5,14.8,328.4-0.9,307.7,0z M310.8,54.6
		c-3.4,0-6.7-1-9.5-2.9c-2.8-1.9-5-4.5-6.3-7.7c-1.3-3.1-1.6-6.6-1-9.9c0.7-3.3,2.3-6.4,4.7-8.8c2.4-2.4,5.4-4,8.8-4.7
		c3.3-0.7,6.8-0.3,9.9,1c3.1,1.3,5.8,3.5,7.7,6.3c1.9,2.8,2.9,6.1,2.9,9.5c0,4.5-1.8,8.9-5,12.1C319.7,52.8,315.3,54.6,310.8,54.6z"
        />
        <path d="M211.9,9c-3.7,3.7-5.8,8.8-5.8,14.1h0v48.8H226V23.1h23.4v48.8h19.8V23.1v0V3.1H226
		C220.7,3.1,215.6,5.2,211.9,9z"/>
</g>
</svg>
