<svg width="78" height="79" viewBox="0 0 78 79" fill="none" xmlns="http://www.w3.org/2000/svg">
<g clip-path="url(#clip0_1419_79)">
<path d="M12.7929 65.9393C13.1022 65.9393 13.4046 65.8483 13.6618 65.6776C13.919 65.507 14.1194 65.2645 14.2378 64.9808C14.3562 64.697 14.3871 64.3848 14.3268 64.0836C14.2665 63.7824 14.1175 63.5058 13.8988 63.2886C13.6801 63.0714 13.4014 62.9236 13.098 62.8636C12.7947 62.8037 12.4802 62.8345 12.1944 62.952C11.9087 63.0695 11.6644 63.2685 11.4926 63.5239C11.3207 63.7792 11.229 64.0795 11.229 64.3866C11.229 64.7984 11.3938 65.1933 11.6871 65.4845C11.9804 65.7757 12.3781 65.9393 12.7929 65.9393Z" fill="white"/>
<path d="M64.2815 66.146C64.5909 66.146 64.8933 66.0548 65.1505 65.8841C65.4078 65.7134 65.6082 65.4708 65.7265 65.187C65.8448 64.9031 65.8757 64.5908 65.8152 64.2895C65.7547 63.9883 65.6055 63.7116 65.3866 63.4945C65.1677 63.2775 64.8888 63.1297 64.5853 63.07C64.2818 63.0103 63.9673 63.0414 63.6816 63.1592C63.3959 63.277 63.1517 63.4764 62.9801 63.732C62.8085 63.9876 62.7171 64.288 62.7175 64.5952C62.7175 64.799 62.758 65.0008 62.8366 65.1891C62.9152 65.3774 63.0305 65.5484 63.1757 65.6924C63.321 65.8365 63.4934 65.9507 63.6831 66.0285C63.8729 66.1063 64.0762 66.1462 64.2815 66.146Z" fill="white"/>
<path d="M45.0366 40.9063L46.5173 39.5818C46.2283 39.4245 45.9514 39.2462 45.6888 39.0485C45.5256 39.6852 45.3074 40.3068 45.0366 40.9063Z" fill="white"/>
<path d="M43.3597 43.6949C42.8542 44.3699 42.325 44.9879 41.8235 45.5507C42.3299 45.8705 42.7304 46.3311 42.9751 46.8752C43.2248 46.54 43.5219 46.2424 43.8572 45.9916C44.1628 45.6324 44.5392 45.339 44.9632 45.1296L43.3597 43.6949Z" fill="white"/>
<path d="M50.3626 30.4443C50.3756 30.4338 50.3895 30.4246 50.4043 30.4168L50.3567 30.4601L49.5262 32.6839C49.5262 32.7745 49.5262 33.2507 49.5361 33.3471C49.5361 33.7978 49.5519 34.3587 49.4806 35.4687C49.4409 36.0984 49.3795 36.6337 49.3061 37.0903L53.215 33.5971C55.0604 35.327 56.9474 36.5491 58.6976 37.2556L63.7977 32.6957C63.2784 30.9127 62.212 28.8896 60.7016 26.9039L62.0078 25.7349C62.3131 25.4633 61.9206 24.5383 61.1337 23.6705C60.3468 22.8026 59.4627 22.3204 59.1515 22.592L57.8453 23.761C56.0118 22.0508 54.0911 20.7873 52.3547 20.0887L47.2566 24.6446C47.7759 26.4316 48.7868 28.3996 50.3012 30.3833L50.3626 30.4443Z" fill="white"/>
<path d="M33.4193 40.4989C33.6492 40.3454 33.8871 40.1978 34.1348 40.06C34.5055 39.8632 34.8405 39.6507 35.1418 39.4499L35.112 39.4362C34.8742 39.326 34.1784 39.0032 32.6958 36.6573C32.4632 36.5658 32.247 36.4375 32.0555 36.2775L31.9882 36.2598C31.8306 36.2887 31.6707 36.3038 31.5105 36.3051C31.0964 36.3256 30.6891 36.195 30.3652 35.938C30.0414 35.681 29.8234 35.3153 29.7523 34.9097C29.453 34.6648 29.2507 34.3224 29.1814 33.9435C29.1686 33.8693 29.1607 33.7943 29.1576 33.7191C29.1358 33.6856 29.118 33.6542 29.1001 33.6227C28.9895 33.428 28.9188 33.2135 28.8923 32.9916C28.8657 32.7696 28.8838 32.5446 28.9455 32.3297L29.0783 31.8849L29.453 31.6074C29.5253 31.5551 29.6008 31.5071 29.6789 31.4638L25.8593 28.0493C26.7631 26.9835 27.6036 25.8664 28.3767 24.7037L24.6978 21.423C23.6128 22.3083 22.5797 23.2545 21.6036 24.2569L19.7523 22.6018C19.447 22.3302 18.563 22.8124 17.7701 23.6803C16.9773 24.5482 16.5927 25.4731 16.898 25.7447L18.7572 27.4077C12.3628 35.1223 10.5967 42.1323 10.5967 42.1323L11.4113 42.2819C11.4113 42.2819 16.1685 34.3095 22.9753 31.1784L33.4193 40.4989Z" fill="white"/>
<path d="M52.4479 51.8228C52.1644 52.3266 51.8631 52.9249 51.5262 53.6255C51.2031 54.2946 50.8562 55.0129 50.4558 55.7332L56.1169 60.7949C56.4241 61.0685 57.3062 60.5863 58.099 59.7184C58.8919 58.8505 59.2784 57.9256 58.9712 57.652L52.4479 51.8228Z" fill="white"/>
<path d="M26.5054 54.9165C26.2293 54.7831 25.9613 54.634 25.7026 54.4698L23.1377 54.7925L19.9405 57.652C19.6352 57.9256 20.0257 58.8505 20.8146 59.7184C21.6035 60.5863 22.4856 61.0685 22.7968 60.7949L27.324 56.7487C26.988 56.1678 26.7136 55.5537 26.5054 54.9165Z" fill="white"/>
<path d="M57.9425 48.5815C57.56 48.3198 54.6066 46.5171 51.5996 48.2548C48.5927 49.9926 45.1735 58.7089 39.6472 54.9696C38.8206 54.4107 39.4014 54.4186 39.8454 54.1549C40.2894 53.8912 40.2676 52.9938 40.5649 53.1256C40.8623 53.2575 41.0367 55.3967 42.2042 54.9696C43.3717 54.5426 43.673 52.98 44.0555 51.4607C44.4381 49.9414 44.9574 48.363 46.3528 48.5539C47.1735 49.044 47.1794 48.9062 47.6452 48.8393C47.5223 48.0108 47.0089 47.8337 47.0089 47.8337C47.0089 47.8337 47.7324 47.6723 48.2617 48.0678C48.3846 47.0287 47.6036 46.6902 47.1992 46.7493C47.3162 46.0152 45.6412 45.8656 44.8345 47.0268C43.7959 47.6034 42.892 49.9394 42.8107 50.4078C42.7295 50.8762 42.3925 50.8014 42.3727 50.2445C42.3528 49.6875 41.9485 46.641 40.7869 46.6804C39.6254 46.7198 38.6739 48.3316 38.2656 48.5343C37.8573 48.737 37.7939 48.6169 38.2854 47.6998C39.6591 45.1414 44.5828 42.1186 44.6284 36.4566C44.6284 36.2598 44.7314 36.3149 44.9138 36.4979C45.0961 36.681 47.1695 38.5132 47.3974 38.4522C47.6254 38.3912 47.9921 36.986 48.0952 35.3781C48.1982 33.7703 48.1249 33.3806 48.1487 32.7154C48.1523 32.625 48.174 32.5361 48.2124 32.454C48.2509 32.372 48.3053 32.2983 48.3727 32.2372L49.6412 31.1154C49.6412 31.1154 48.7711 30.6726 48.0734 31.2237C47.4391 31.1823 46.9455 32.7981 46.9039 34.0123C46.9257 34.5417 46.8642 34.7267 46.5768 34.1757C46.2894 33.6246 45.2646 32.4852 45.2646 32.4852C45.2646 32.4852 44.9574 26.6028 40.1586 25.8904L39.8494 25.8077L41.1933 19.2051C41.2825 18.7642 41.1516 18.7111 40.9019 19.085L40.0377 20.3799C39.7879 20.7539 39.6155 21.0707 39.5421 21.1849C39.5025 21.2439 39.4946 21.2419 39.4866 21.1632C39.4787 21.0845 39.3955 20.6574 39.3043 20.2166L38.4658 16.192C38.3746 15.7512 38.224 15.7512 38.1328 16.192L37.3023 20.1831C37.2091 20.622 37.1259 21.055 37.116 21.1455C37.1061 21.236 37.0882 21.2459 37.0545 21.179C37.001 21.0747 36.8048 20.746 36.555 20.3701L35.6967 19.085C35.447 18.7111 35.3162 18.7642 35.4073 19.2051L36.7255 25.605C36.5308 25.6634 36.35 25.7605 36.1943 25.8904C34.5927 26.6028 32.9316 27.0928 32.7275 27.268C32.5233 27.4431 33.4034 27.9804 33.7522 27.9804C34.1011 27.9804 35.0664 27.9469 35.3737 27.9135V27.9804C35.3737 27.9804 34.4975 28.374 34.1844 28.5373C33.8712 28.7007 34.0872 28.986 34.6204 28.9309L35.1536 28.8778C35.1536 28.8778 37.998 29.2576 38.5729 28.5373C39.5164 28.7676 41.6492 29.3659 40.5966 32.6524C39.7899 33.4928 39.4886 33.7781 39.4886 33.7781C38.3047 34.3445 37.1861 35.0367 36.1526 35.8426C33.9485 34.6815 33.8751 32.6761 32.0912 32.4478C30.8642 32.2923 30.2854 32.7194 30.2854 32.7194C30.2854 32.7194 30.1764 33.0854 30.8603 33.2763C30.5174 33.4259 30.3271 33.9002 31.0585 33.9415C31.7899 33.9828 32.0159 34.1166 32.0159 34.1166C32.0159 34.1166 31.0843 34.2682 31.1398 34.6736C31.1953 35.079 32.0159 34.8113 32.0159 34.8113C32.2649 34.8903 32.5212 34.9443 32.781 34.9727C32.8648 35.1105 32.9832 35.2243 33.1246 35.303C33.266 35.3816 33.4256 35.4224 33.5877 35.4214C33.5877 35.4214 35.0644 37.8657 35.7067 38.1629C36.9787 38.0124 38.197 37.566 39.2626 36.86C39.2626 36.86 38.7869 39.076 34.8186 41.2723C31.3855 43.1734 30.0456 46.6371 29.9088 47.9124C29.8672 48.2922 29.4985 48.2922 29.3479 47.9124C29.1972 47.5325 28.3568 47.2059 27.6393 47.5719C26.9217 47.938 26.8325 49.4474 27.0446 50.398C27.2567 51.3485 27.223 51.7953 26.8464 51.3603C26.4698 50.9254 24.9594 50.9136 25.4371 51.809C24.3707 52.0058 24.5768 53.039 24.6858 53.3834C25.0208 53.0331 25.7106 53.1178 25.9842 52.9288C26.2993 53.2398 27.3241 53.7967 27.6531 53.8518C27.8989 54.7197 28.6918 56.6877 29.1972 56.7566C29.7027 56.8255 30.1427 55.6152 30.115 54.761C30.0872 53.9069 30.4559 54.0014 30.6759 54.5446C30.896 55.0877 33.3836 60.2734 40.8206 60.2734C52.6085 60.2734 48.4282 44.8147 57.9128 49.0027C58.4817 49.2683 58.6046 49.0341 57.9425 48.5815ZM36.9197 27.2266C36.6284 27.2266 36.3945 27.0574 36.3945 26.8488C36.3945 26.6402 36.6284 26.469 36.9197 26.469C37.2111 26.469 37.445 26.6382 37.445 26.8488C37.445 27.0594 37.2091 27.2266 36.9197 27.2266ZM53.9108 48.0442C53.6407 48.0953 53.3755 48.169 53.118 48.2646C52.6545 48.45 52.2221 48.7041 51.8355 49.0184C51.007 49.7151 50.335 50.7404 49.4054 52.1672C49.0981 52.6356 48.7513 53.167 48.3647 53.7318C46.7413 56.115 44.2736 57.4277 41.4173 57.4277C37.7899 57.4277 34.5174 55.2196 33.6393 52.1751C32.1209 46.9185 35.005 44.2479 38.0575 41.4199C38.4321 41.0735 38.8206 40.7134 39.1972 40.3513C43.1041 36.5983 43.441 30.22 41.5937 28.0434C41.5829 28.0313 41.5747 28.0172 41.5694 28.0019C41.5642 27.9866 41.5621 27.9704 41.5632 27.9543C41.5643 27.9382 41.5686 27.9225 41.5759 27.908C41.5832 27.8936 41.5932 27.8807 41.6056 27.8702C41.6289 27.8476 41.6602 27.8349 41.6928 27.8349C41.7254 27.8349 41.7567 27.8476 41.78 27.8702C43.4648 29.6178 43.9306 35.8898 39.6155 40.4851C39.0605 41.0755 38.4718 41.6423 37.9009 42.1894C35.223 44.7616 32.6918 47.1901 34.0456 51.8445C34.9118 54.824 38.0575 56.9869 41.5243 56.9869C44.222 56.9869 46.5748 55.6781 48.1546 53.3008L48.5511 52.7104C49.4906 51.2777 50.4658 49.7958 51.6789 48.8314C52.0799 48.4928 52.5374 48.2264 53.0307 48.0442C53.3003 47.9386 53.5799 47.8602 53.8652 47.81C53.8979 47.8053 53.9312 47.813 53.9584 47.8316C53.9856 47.8502 54.0047 47.8784 54.0119 47.9104C54.014 47.941 54.005 47.9714 53.9864 47.996C53.9679 48.0206 53.941 48.0377 53.9108 48.0442Z" fill="white"/>
<path d="M12.4995 56.2569L11.7443 54.895L6.17839 57.9356L4.59267 55.078L3.40337 55.7334L5.7443 59.9528L12.4995 56.2569ZM7.82755 48.9988C8.1328 49.9947 7.67691 50.6126 7.03469 50.8035L4.52131 51.5632C3.889 51.76 3.16353 51.4923 2.85828 50.4985C2.55302 49.5046 3.00892 48.8827 3.65114 48.6918L6.16254 47.9342C6.79485 47.7374 7.52032 48.003 7.82557 48.9988H7.82755ZM9.19921 48.5856C8.65015 46.7927 7.3221 45.9583 5.63132 46.468L3.27056 47.1824C1.58176 47.6921 0.947473 49.1209 1.49653 50.9117C2.04559 52.7026 3.37364 53.539 5.06442 53.0293L7.42517 52.3208C9.11397 51.8111 9.74628 50.3725 9.20912 48.5816L9.19921 48.5856ZM7.95243 44.3209L7.84936 42.7701L4.99901 42.9669L4.86819 41.0973C4.77106 39.7197 3.76809 38.9679 2.29138 39.0702C0.814668 39.1726 -0.0872149 40.0542 0.0138753 41.4319L0.253717 44.8522L7.95639 44.3189L7.95243 44.3209ZM3.62934 43.0712L1.50644 43.209L1.39346 41.6346C1.36174 41.174 1.64916 40.7057 2.38454 40.6506C3.11992 40.5954 3.48464 41.0245 3.51635 41.483L3.62735 43.0574L3.62934 43.0712ZM7.62537 37.5864L7.87116 36.0513L4.7334 35.5554L5.1774 32.7864L8.31516 33.2823L8.56095 31.7473L0.93558 30.5409L0.689792 32.0759L3.82755 32.5739L3.38355 35.3409L0.245788 34.8449L0 36.38L7.62537 37.5844V37.5864ZM8.96333 27.0929C8.5669 28.0533 7.81368 28.2423 7.20317 27.9904L4.77899 26.9906C4.1665 26.7387 3.77403 26.0775 4.18434 25.1171C4.59465 24.1567 5.33598 23.9678 5.94648 24.2197L8.37066 25.2194C8.98117 25.4713 9.37364 26.1326 8.96531 27.0929H8.96333ZM10.2874 27.6401C11.0129 25.9102 10.5233 24.4263 8.8999 23.7552L6.61051 22.8007C4.98117 22.1277 3.5778 22.8302 2.8444 24.5582C2.111 26.2861 2.61051 27.7699 4.23191 28.443L6.51338 29.3857C8.14272 30.0587 9.55203 29.3463 10.2795 27.6282L10.2874 27.6401ZM12.0436 23.5486L12.9732 22.2969L7.86323 18.5577L9.50248 16.3555L14.6125 20.0947L15.5421 18.8431L9.33201 14.2793L5.83152 18.9828L12.0436 23.5387V23.5486ZM16.6838 17.6839L17.8731 16.6724L16.0159 14.5095L17.449 13.2913C18.5055 12.3939 18.5173 11.1442 17.556 10.0303C16.5946 8.91643 15.3419 8.72554 14.2854 9.61508L11.663 11.8507L16.6838 17.6839ZM15.1259 13.4783L13.7384 11.8724L14.9534 10.8392C15.3043 10.54 15.8573 10.4889 16.3409 11.0478C16.8246 11.6067 16.6938 12.1459 16.3409 12.4451L15.1259 13.4783ZM23.8771 10.975C22.9534 11.467 22.2537 11.1423 21.9405 10.5637L20.7017 8.26502C20.3885 7.68643 20.5035 6.92875 21.4291 6.43674C22.3548 5.94474 23.0545 6.26946 23.3657 6.84806L24.6046 9.14669C24.9177 9.72529 24.8028 10.483 23.8771 10.975ZM24.555 12.2306C26.2161 11.3469 26.783 9.8906 25.9425 8.34571L24.775 6.1809C23.9425 4.63602 22.4083 4.29555 20.7453 5.17919C19.0823 6.06282 18.5173 7.52112 19.3578 9.06404L20.5233 11.2288C21.3558 12.7737 22.9019 13.1083 24.555 12.2306ZM31.8632 6.91694L32.7572 4.10466L33.8989 8.87904L35.3697 8.53267L33.5857 1.07393L32.1586 1.41045L30.9693 5.16738L28.2101 2.34526L26.7393 2.69163L28.5233 10.1504L29.9921 9.81188L28.8603 5.02962L30.9277 7.13145L31.8731 6.90907L31.8632 6.91694ZM43.4311 8.76883L44.995 8.85739L45.4331 1.20381L43.8712 1.11525L43.4311 8.76883ZM37.0208 8.40475L40.4361 8.60155C41.8117 8.67831 42.6799 7.79467 42.7631 6.34031C42.8464 4.88596 42.0852 3.90786 40.7096 3.82323L38.8583 3.71106L39.0248 0.823988L37.4609 0.735428L37.0208 8.38901V8.40475ZM38.662 7.13736L38.781 5.08276L40.3449 5.17132C40.7968 5.1969 41.219 5.52753 41.1774 6.24978C41.1358 6.97204 40.6779 7.2515 40.226 7.23379L38.662 7.14326V7.13736ZM46.6343 9.20573L55.1219 12.5887L57.998 5.46652L56.5431 4.89186L54.1764 10.7408L52.1189 9.92209L54.4856 4.06726L53.0426 3.48867L50.664 9.34152L48.5966 8.51693L50.9633 2.66408L49.5084 2.08351L46.6343 9.19786V9.20573ZM55.7998 13.2362C57.2924 14.417 58.6283 14.2202 60.3588 12.0554L61.9623 10.0382L63.5481 11.2859L59.5837 16.2217L60.8087 17.1899L65.6214 11.1895L61.6947 8.0879L59.4014 10.9514C58.0614 12.6222 57.5481 12.7895 56.6918 12.1144L55.7998 13.2283V13.2362ZM61.8989 18.4081L65.0902 22.2949L66.1506 21.4369L63.9445 18.7466L65.3796 17.5855L67.2488 19.8586L68.2577 19.0418L66.3885 16.7688L67.8077 15.6195L69.998 18.2842L71.0565 17.4261L67.883 13.5511L61.8989 18.3963V18.4081ZM65.7086 23.3045L66.4143 24.6821L69.2507 23.2612L70.5233 25.7645L67.6868 27.1854L68.3925 28.5749L75.2864 25.121L74.5808 23.7316L71.7443 25.1623L70.4718 22.661L73.3082 21.2263L72.6026 19.8487L65.7086 23.2967V23.3045ZM68.8801 30.1375L69.221 31.6548L72.3211 30.966L72.9395 33.7015L69.8394 34.3903L70.1824 35.9077L77.7146 34.2309L77.3717 32.7136L74.2716 33.4044L73.6571 30.6609L76.7572 29.9702L76.4143 28.4528L68.8821 30.1296L68.8801 30.1375ZM70.2874 37.5214L70.2597 38.9463L75.1219 42.0282L70.2022 41.9357L70.1724 43.4904L77.893 43.636L77.9207 42.2112L73.0505 39.1352L77.9703 39.2277L77.998 37.673L70.2874 37.5214ZM69.8632 45.0845L69.4668 46.588L72.5273 47.4008L72.3191 48.188L68.7512 49.235L68.3548 50.7287L68.8563 50.8606L72.7136 49.6955L75.3617 52.3956L75.8632 52.5255L76.2359 51.1282L73.6392 48.5344L73.8474 47.7472L76.9197 48.5521L77.3162 47.0485L69.8513 45.0805L69.8632 45.0845ZM68.0317 51.5002L67.3558 52.7558L70.2716 57.6974L65.9267 55.3909L65.1873 56.7685L71.994 60.3897L72.67 59.136L69.7562 54.1944L74.0932 56.4989L74.8325 55.1213L68.0238 51.5021L68.0317 51.5002Z" fill="white"/>
<path d="M12.4995 56.2569L11.7443 54.895L6.17839 57.9356L4.59267 55.078L3.40337 55.7334L5.7443 59.9528L12.4995 56.2569ZM7.82755 48.9988C8.1328 49.9947 7.67691 50.6126 7.03469 50.8035L4.52131 51.5632C3.889 51.76 3.16353 51.4923 2.85828 50.4985C2.55302 49.5046 3.00892 48.8827 3.65114 48.6918L6.16254 47.9342C6.79485 47.7374 7.52032 48.003 7.82557 48.9988H7.82755ZM9.19921 48.5856C8.65015 46.7927 7.3221 45.9583 5.63132 46.468L3.27056 47.1824C1.58176 47.6921 0.947473 49.1209 1.49653 50.9117C2.04559 52.7026 3.37364 53.539 5.06442 53.0293L7.42517 52.3208C9.11397 51.8111 9.74628 50.3725 9.20912 48.5816L9.19921 48.5856ZM7.95243 44.3209L7.84936 42.7701L4.99901 42.9669L4.86819 41.0973C4.77106 39.7197 3.76809 38.9679 2.29138 39.0702C0.814668 39.1726 -0.0872149 40.0542 0.0138753 41.4319L0.253717 44.8522L7.95639 44.3189L7.95243 44.3209ZM3.62934 43.0712L1.50644 43.209L1.39346 41.6346C1.36174 41.174 1.64916 40.7057 2.38454 40.6506C3.11992 40.5954 3.48464 41.0245 3.51635 41.483L3.62735 43.0574L3.62934 43.0712ZM7.62537 37.5864L7.87116 36.0513L4.7334 35.5554L5.1774 32.7864L8.31516 33.2823L8.56095 31.7473L0.93558 30.5409L0.689792 32.0759L3.82755 32.5739L3.38355 35.3409L0.245788 34.8449L0 36.38L7.62537 37.5844V37.5864ZM8.96333 27.0929C8.5669 28.0533 7.81368 28.2423 7.20317 27.9904L4.77899 26.9906C4.1665 26.7387 3.77403 26.0775 4.18434 25.1171C4.59465 24.1567 5.33598 23.9678 5.94648 24.2197L8.37066 25.2194C8.98117 25.4713 9.37364 26.1326 8.96531 27.0929H8.96333ZM10.2874 27.6401C11.0129 25.9102 10.5233 24.4263 8.8999 23.7552L6.61051 22.8007C4.98117 22.1277 3.5778 22.8302 2.8444 24.5582C2.111 26.2861 2.61051 27.7699 4.23191 28.443L6.51338 29.3857C8.14272 30.0587 9.55203 29.3463 10.2795 27.6282L10.2874 27.6401ZM12.0436 23.5486L12.9732 22.2969L7.86323 18.5577L9.50248 16.3555L14.6125 20.0947L15.5421 18.8431L9.33201 14.2793L5.83152 18.9828L12.0436 23.5387V23.5486ZM16.6838 17.6839L17.8731 16.6724L16.0159 14.5095L17.449 13.2913C18.5055 12.3939 18.5173 11.1442 17.556 10.0303C16.5946 8.91643 15.3419 8.72554 14.2854 9.61508L11.663 11.8507L16.6838 17.6839ZM15.1259 13.4783L13.7384 11.8724L14.9534 10.8392C15.3043 10.54 15.8573 10.4889 16.3409 11.0478C16.8246 11.6067 16.6938 12.1459 16.3409 12.4451L15.1259 13.4783ZM23.8771 10.975C22.9534 11.467 22.2537 11.1423 21.9405 10.5637L20.7017 8.26502C20.3885 7.68643 20.5035 6.92875 21.4291 6.43674C22.3548 5.94474 23.0545 6.26946 23.3657 6.84806L24.6046 9.14669C24.9177 9.72529 24.8028 10.483 23.8771 10.975ZM24.555 12.2306C26.2161 11.3469 26.783 9.8906 25.9425 8.34571L24.775 6.1809C23.9425 4.63602 22.4083 4.29555 20.7453 5.17919C19.0823 6.06282 18.5173 7.52112 19.3578 9.06404L20.5233 11.2288C21.3558 12.7737 22.9019 13.1083 24.555 12.2306ZM31.8632 6.91694L32.7572 4.10466L33.8989 8.87904L35.3697 8.53267L33.5857 1.07393L32.1586 1.41045L30.9693 5.16738L28.2101 2.34526L26.7393 2.69163L28.5233 10.1504L29.9921 9.81188L28.8603 5.02962L30.9277 7.13145L31.8731 6.90907L31.8632 6.91694ZM43.4311 8.76883L44.995 8.85739L45.4331 1.20381L43.8712 1.11525L43.4311 8.76883ZM37.0208 8.40475L40.4361 8.60155C41.8117 8.67831 42.6799 7.79467 42.7631 6.34031C42.8464 4.88596 42.0852 3.90786 40.7096 3.82323L38.8583 3.71106L39.0248 0.823988L37.4609 0.735428L37.0208 8.38901V8.40475ZM38.662 7.13736L38.781 5.08276L40.3449 5.17132C40.7968 5.1969 41.219 5.52753 41.1774 6.24978C41.1358 6.97204 40.6779 7.2515 40.226 7.23379L38.662 7.14326V7.13736ZM46.6343 9.20573L55.1219 12.5887L57.998 5.46652L56.5431 4.89186L54.1764 10.7408L52.1189 9.92209L54.4856 4.06726L53.0426 3.48867L50.664 9.34152L48.5966 8.51693L50.9633 2.66408L49.5084 2.08351L46.6343 9.19786V9.20573ZM55.7998 13.2362C57.2924 14.417 58.6283 14.2202 60.3588 12.0554L61.9623 10.0382L63.5481 11.2859L59.5837 16.2217L60.8087 17.1899L65.6214 11.1895L61.6947 8.0879L59.4014 10.9514C58.0614 12.6222 57.5481 12.7895 56.6918 12.1144L55.7998 13.2283V13.2362ZM61.8989 18.4081L65.0902 22.2949L66.1506 21.4369L63.9445 18.7466L65.3796 17.5855L67.2488 19.8586L68.2577 19.0418L66.3885 16.7688L67.8077 15.6195L69.998 18.2842L71.0565 17.4261L67.883 13.5511L61.8989 18.3963V18.4081ZM65.7086 23.3045L66.4143 24.6821L69.2507 23.2612L70.5233 25.7645L67.6868 27.1854L68.3925 28.5749L75.2864 25.121L74.5808 23.7316L71.7443 25.1623L70.4718 22.661L73.3082 21.2263L72.6026 19.8487L65.7086 23.2967V23.3045ZM68.8801 30.1375L69.221 31.6548L72.3211 30.966L72.9395 33.7015L69.8394 34.3903L70.1824 35.9077L77.7146 34.2309L77.3717 32.7136L74.2716 33.4044L73.6571 30.6609L76.7572 29.9702L76.4143 28.4528L68.8821 30.1296L68.8801 30.1375ZM70.2874 37.5214L70.2597 38.9463L75.1219 42.0282L70.2022 41.9357L70.1724 43.4904L77.893 43.636L77.9207 42.2112L73.0505 39.1352L77.9703 39.2277L77.998 37.673L70.2874 37.5214ZM69.8632 45.0845L69.4668 46.588L72.5273 47.4008L72.3191 48.188L68.7512 49.235L68.3548 50.7287L68.8563 50.8606L72.7136 49.6955L75.3617 52.3956L75.8632 52.5255L76.2359 51.1282L73.6392 48.5344L73.8474 47.7472L76.9197 48.5521L77.3162 47.0485L69.8513 45.0805L69.8632 45.0845ZM68.0317 51.5002L67.3558 52.7558L70.2716 57.6974L65.9267 55.3909L65.1873 56.7685L71.994 60.3897L72.67 59.136L69.7562 54.1944L74.0932 56.4989L74.8325 55.1213L68.0238 51.5021L68.0317 51.5002Z" fill="white"/>
<path d="M16.7434 72.048L18.0972 72.8352L19.5442 70.3811L21.1735 71.3238C22.3747 72.0185 23.568 71.619 24.3113 70.3516C25.0546 69.0842 24.8247 67.8463 23.6235 67.1516L20.6502 65.4257L16.7434 72.048ZM20.2261 69.2082L21.2984 67.3819L22.6859 68.1809C23.0824 68.4131 23.3163 68.913 22.9436 69.5467C22.571 70.1804 22.014 70.2394 21.6136 70.0072L20.2261 69.2082ZM26.785 75.5058C25.794 75.1791 25.5462 74.4509 25.7543 73.8271L26.5789 71.3533C26.789 70.7294 27.4213 70.2925 28.4164 70.6192C29.4114 70.9459 29.6572 71.6741 29.4491 72.2979L28.6225 74.7717C28.4144 75.3956 27.7801 75.8325 26.785 75.5058ZM26.3351 76.8578C28.119 77.4482 29.5779 76.8578 30.1329 75.1889L30.9119 72.8608C31.4669 71.1959 30.6582 69.8576 28.8683 69.2692C27.0784 68.6807 25.6235 69.2692 25.0685 70.9361L24.3014 73.2623C23.7464 74.9252 24.565 76.2674 26.345 76.8539L26.3351 76.8578ZM34.5392 78.6526C36.0536 78.814 37.4768 78.1744 37.681 76.291L37.6929 76.1828L36.1349 76.0155L36.123 76.1257C36.0239 77.0507 35.3083 77.3065 34.5947 77.2278C33.673 77.1294 33.2865 76.6138 33.3678 75.862L33.6592 73.1816C33.7404 72.4298 34.23 72.0008 35.1517 72.109C35.8633 72.1838 36.5056 72.6049 36.4084 73.5102L36.3965 73.6185L37.9525 73.7858L37.9644 73.6755C38.1626 71.7922 36.9178 70.8652 35.4035 70.7039C33.451 70.4933 32.2776 71.3927 32.0893 73.1245L31.8217 75.5845C31.6334 77.3164 32.5868 78.4421 34.5392 78.6526ZM42.6225 78.7235C44.1369 78.5798 45.3975 77.6686 45.2211 75.7833V75.6731L43.6611 75.8207L43.673 75.9309C43.7603 76.8558 43.1121 77.2475 42.3985 77.3085C41.4748 77.397 40.9912 76.97 40.9198 76.2162L40.6621 73.5358C40.5908 72.7821 40.9833 72.2724 41.9069 72.1858C42.6205 72.1169 43.3341 72.4022 43.4213 73.3075L43.4312 73.4158L44.9912 73.2682L44.9813 73.1599C44.7989 71.2746 43.3856 70.6153 41.8693 70.759C39.9149 70.9439 38.9476 72.0578 39.1121 73.7917L39.35 76.2556C39.5165 77.9894 40.678 78.9026 42.6324 78.7176L42.6225 78.7235ZM47.8237 77.8615L49.1914 77.4305L50.5789 71.8689L52.0516 76.5272L53.5442 76.0549L51.2072 68.7496L49.8395 69.1806L48.452 74.7422L46.9615 70.0859L45.4689 70.5582L47.8078 77.8635L47.8237 77.8615ZM56.0635 74.9823L57.3024 74.2659L57.4253 68.541L59.903 72.7604L61.2568 71.9732L57.3678 65.3489L56.1289 66.0672L56.0041 71.7922L53.5264 67.5728L52.1745 68.36L56.0635 74.9823Z" fill="white"/>
<path d="M16.7434 72.048L18.0972 72.8352L19.5442 70.3811L21.1735 71.3238C22.3747 72.0185 23.568 71.619 24.3113 70.3516C25.0546 69.0842 24.8247 67.8463 23.6235 67.1516L20.6502 65.4257L16.7434 72.048ZM20.2261 69.2082L21.2984 67.3819L22.6859 68.1809C23.0824 68.4131 23.3163 68.913 22.9436 69.5467C22.571 70.1804 22.014 70.2394 21.6136 70.0072L20.2261 69.2082ZM26.785 75.5058C25.794 75.1791 25.5462 74.4509 25.7543 73.8271L26.5789 71.3533C26.789 70.7294 27.4213 70.2925 28.4164 70.6192C29.4114 70.9459 29.6572 71.6741 29.4491 72.2979L28.6225 74.7717C28.4144 75.3956 27.7801 75.8325 26.785 75.5058ZM26.3351 76.8578C28.119 77.4482 29.5779 76.8578 30.1329 75.1889L30.9119 72.8608C31.4669 71.1959 30.6582 69.8576 28.8683 69.2692C27.0784 68.6807 25.6235 69.2692 25.0685 70.9361L24.3014 73.2623C23.7464 74.9252 24.565 76.2674 26.345 76.8539L26.3351 76.8578ZM34.5392 78.6526C36.0536 78.814 37.4768 78.1744 37.681 76.291L37.6929 76.1828L36.1349 76.0155L36.123 76.1257C36.0239 77.0507 35.3083 77.3065 34.5947 77.2278C33.673 77.1294 33.2865 76.6138 33.3678 75.862L33.6592 73.1816C33.7404 72.4298 34.23 72.0008 35.1517 72.109C35.8633 72.1838 36.5056 72.6049 36.4084 73.5102L36.3965 73.6185L37.9525 73.7858L37.9644 73.6755C38.1626 71.7922 36.9178 70.8652 35.4035 70.7039C33.451 70.4933 32.2776 71.3927 32.0893 73.1245L31.8217 75.5845C31.6334 77.3164 32.5868 78.4421 34.5392 78.6526ZM42.6225 78.7235C44.1369 78.5798 45.3975 77.6686 45.2211 75.7833V75.6731L43.6611 75.8207L43.673 75.9309C43.7603 76.8558 43.1121 77.2475 42.3985 77.3085C41.4748 77.397 40.9912 76.97 40.9198 76.2162L40.6621 73.5358C40.5908 72.7821 40.9833 72.2724 41.9069 72.1858C42.6205 72.1169 43.3341 72.4022 43.4213 73.3075L43.4312 73.4158L44.9912 73.2682L44.9813 73.1599C44.7989 71.2746 43.3856 70.6153 41.8693 70.759C39.9149 70.9439 38.9476 72.0578 39.1121 73.7917L39.35 76.2556C39.5165 77.9894 40.678 78.9026 42.6324 78.7176L42.6225 78.7235ZM47.8237 77.8615L49.1914 77.4305L50.5789 71.8689L52.0516 76.5272L53.5442 76.0549L51.2072 68.7496L49.8395 69.1806L48.452 74.7422L46.9615 70.0859L45.4689 70.5582L47.8078 77.8635L47.8237 77.8615ZM56.0635 74.9823L57.3024 74.2659L57.4253 68.541L59.903 72.7604L61.2568 71.9732L57.3678 65.3489L56.1289 66.0672L56.0041 71.7922L53.5264 67.5728L52.1745 68.36L56.0635 74.9823Z" fill="white"/>
</g>
<defs>
<clipPath id="clip0_1419_79">
<rect width="78" height="78" fill="white" transform="translate(0 0.743164)"/>
</clipPath>
</defs>
</svg>
